#!OML:ASF E:\emotionWalksFemale\Project 1\Capture day 1\Session 1\Female1.ASF
:FULLY-SPECIFIED
:DEGREES
176
root 8.57466 19.3481 5.31719 -162.775 0.454643 -177.46
lowerback 9.25662 0.88566 1.80379
upperback -6.53257 1.64761 -0.317211
thorax -12.2539 0.704383 -1.70354
lowerneck -9.8173 -2.27639 -5.76815
upperneck 5.68533 -2.57356 3.63527
head 3.78751 -1.24767 2.09655
rclavicle 2.9445e-014 5.56597e-015
rhumerus 79.5489 -38.2378 -47.8177
rradius 61.6178
rwrist -28.023
rhand 4.48894 -35.109
rfingers 7.12502
rthumb 29.8824 -62.7175
lclavicle 2.9445e-014 5.56597e-015
lhumerus 92.7697 31.1189 54.3575
lradius 45.3199
lwrist 23.7053
lhand -16.5772 -56.7199
lfingers 7.12502
lthumb 9.64332 -26.9607
rfemur 1.39566 13.781 26.4112
rtibia 12.3895
rfoot -23.9668 -41.8425
rtoes 63.7144
lfemur -8.4969 -23.2221 -20.9275
ltibia 25.4472
lfoot -27.55 28.7993
ltoes 67.0078
177
root 8.57789 19.5278 5.16267 -163.184 0.609126 -177.425
lowerback 9.98801 0.9504 1.67645
upperback -6.43353 1.70567 -0.329284
thorax -12.5896 0.726811 -1.67407
lowerneck -9.82403 -2.30304 -5.69127
upperneck 6.87986 -2.63874 3.62595
head 3.77566 -1.27205 1.86649
rclavicle -1.21259e-014 -7.55382e-015
rhumerus 80.0419 -38.6604 -49.8108
rradius 63.8808
rwrist -30.7209
rhand 3.90678 -35.7412
rfingers 7.12502
rthumb 29.3267 -63.4483
lclavicle -1.21259e-014 -7.55382e-015
lhumerus 94.3221 31.119 56.4405
lradius 45.4198
lwrist 23.7076
lhand -16.2005 -57.578
lfingers 7.12502
lthumb 10.0067 -27.8359
rfemur 1.13531 14.2881 26.4412
rtibia 12.3187
rfoot -25.7856 -41.8535
rtoes 63.9704
lfemur -8.7162 -24.5791 -20.8579
ltibia 25.4244
lfoot -32.3788 25.6655
ltoes 68.1754
178
root 8.57704 19.6971 5.01156 -163.656 0.710691 -177.059
lowerback 10.7895 0.956133 1.96042
upperback -6.21841 1.75012 -0.254723
thorax -12.8279 0.71032 -1.77796
lowerneck -10.0658 -2.26881 -5.64752
upperneck 7.82642 -2.59623 3.50191
head 4.10008 -1.26148 1.82048
rclavicle 2.12203e-014 2.5842e-015
rhumerus 80.3222 -38.946 -51.2576
rradius 65.6736
rwrist -31.9615
rhand 3.57441 -35.2608
rfingers 7.12502
rthumb 29.0093 -63.0229
lclavicle 2.12203e-014 2.5842e-015
lhumerus 95.145 31.5981 57.4116
lradius 45.361
lwrist 23.5446
lhand -15.5562 -56.7284
lfingers 7.12502
lthumb 10.6282 -27.0171
rfemur 0.868073 14.2395 26.7995
rtibia 12.0737
rfoot -24.9701 -42.409
rtoes 63.3201
lfemur -9.05208 -25.182 -20.3879
ltibia 25.4903
lfoot -35.463 23.1755
ltoes 68.6897
179
root 8.57663 19.8546 4.86313 -164.134 0.81214 -176.804
lowerback 11.6404 0.92424 2.11105
upperback -5.99927 1.73165 -0.1584
thorax -13.098 0.676999 -1.77079
lowerneck -10.2601 -2.17983 -5.60252
upperneck 8.71851 -2.47552 3.28598
head 4.39674 -1.22061 1.75206
rclavicle 1.77415e-014 7.35503e-015
rhumerus 80.4323 -39.1547 -52.4793
rradius 67.549
rwrist -33.3592
rhand 4.95249 -36.7189
rfingers 7.12502
rthumb 30.3247 -64.2469
lclavicle 1.77415e-014 7.35503e-015
lhumerus 95.4478 32.2746 57.8768
lradius 45.2176
lwrist 23.0438
lhand -16.1069 -56.516
lfingers 7.12502
lthumb 10.097 -26.7783
rfemur 0.641238 14.034 27.0077
rtibia 11.6475
rfoot -24.8531 -42.3263
rtoes 63.1473
lfemur -9.53113 -25.3593 -19.978
ltibia 25.6106
lfoot -37.5298 21.0696
ltoes 69.0014
180
root 8.57764 20.001 4.71889 -164.534 0.902601 -176.706
lowerback 12.5528 0.936673 2.16286
upperback -5.89685 1.75697 -0.179593
thorax -13.5385 0.665753 -1.85218
lowerneck -10.225 -2.19373 -5.42136
upperneck 9.63004 -2.53136 3.05775
head 4.66873 -1.26913 1.64694
rclavicle 1.50082e-014 -2.5842e-015
rhumerus 79.4154 -39.16 -52.5634
rradius 69.0396
rwrist -33.6481
rhand 5.72303 -37.6725
rfingers 7.12502
rthumb 31.0594 -65.0627
lclavicle 1.50082e-014 -2.5842e-015
lhumerus 95.3775 32.7762 58.0193
lradius 45.176
lwrist 23.0252
lhand -16.3895 -56.7096
lfingers 7.12502
lthumb 9.8244 -26.9588
rfemur 0.303676 14.0275 27.0432
rtibia 11.139
rfoot -26.3345 -41.8703
rtoes 63.5627
lfemur -10.1956 -25.4192 -19.6355
ltibia 25.7199
lfoot -38.7379 19.0764
ltoes 69.2247
